<?xml version="1.0" standalone="no"?>
<!DOCTYPE svg PUBLIC "-//W3C//DTD SVG 20010904//EN"
 "http://www.w3.org/TR/2001/REC-SVG-20010904/DTD/svg10.dtd">
<svg version="1.0" xmlns="http://www.w3.org/2000/svg"
 width="300.000000pt" height="303.000000pt" viewBox="0 0 300.000000 303.000000"
 preserveAspectRatio="xMidYMid meet">
<metadata>
Created by potrace 1.10, written by Peter Selinger 2001-2011
</metadata>
<g transform="translate(0.000000,303.000000) scale(0.100000,-0.100000)"
fill="#dc0be0" stroke="none">
<path d="M1400 2834 c-296 -33 -511 -124 -732 -308 -222 -184 -395 -495 -443
-796 -20 -124 -19 -341 1 -461 30 -177 107 -372 209 -525 55 -83 238 -284 249
-273 3 3 1 23 -5 44 -20 71 16 195 93 324 35 57 38 70 38 135 0 54 5 78 20
101 36 55 39 60 44 86 7 33 51 77 86 87 l28 7 -39 64 c-30 51 -47 67 -75 77
-41 14 -80 47 -99 84 -7 14 -16 66 -20 115 -5 73 -4 98 10 133 19 46 62 88
100 98 18 4 35 27 65 91 33 66 59 103 118 162 203 203 490 247 745 114 90 -47
210 -164 252 -246 25 -48 36 -59 66 -67 48 -13 83 -42 102 -82 20 -45 32 -198
18 -241 -13 -38 -64 -91 -102 -106 -18 -7 -36 -29 -57 -73 -17 -35 -40 -78
-52 -95 -21 -31 -21 -33 -3 -33 25 0 74 -34 89 -62 8 -13 13 -36 14 -51 0 -15
10 -41 22 -58 16 -21 24 -49 28 -102 4 -62 10 -80 44 -132 77 -116 121 -269
97 -336 -6 -18 -8 -35 -5 -38 11 -11 194 190 250 276 104 159 181 351 210 532
19 115 14 410 -9 506 -15 64 -47 176 -53 187 -2 3 -25 -1 -51 -9 -29 -9 -71
-13 -108 -10 -54 4 -66 1 -118 -29 -66 -39 -87 -42 -110 -16 -23 25 -21 36 9
88 l26 45 -26 39 c-36 54 -58 144 -50 200 9 60 26 98 68 153 l35 46 -72 59
c-40 32 -93 72 -118 89 -119 81 -309 159 -458 187 -80 15 -271 27 -331 20z
m609 -431 c-14 -17 -31 1 -22 24 4 10 9 11 19 2 11 -9 12 -15 3 -26z m-1174
-152 c7 -12 -12 -24 -25 -16 -11 7 -4 25 10 25 5 0 11 -4 15 -9z m-201 -217
c12 -5 13 -9 3 -19 -13 -14 -41 0 -31 16 6 11 8 11 28 3z m1828 -486 c-6 -6
-16 -7 -22 -3 -9 6 -9 9 1 16 17 10 34 0 21 -13z m-2012 -113 c0 -8 -4 -15
-10 -15 -5 0 -10 7 -10 15 0 8 5 15 10 15 6 0 10 -7 10 -15z m2171 -94 c-12
-12 -17 -13 -19 -4 -2 7 -7 13 -12 13 -4 0 -3 11 3 24 11 23 11 23 27 3 15
-18 15 -22 1 -36z m-1934 -92 c-9 -15 -11 -15 -26 0 -14 14 -14 18 -1 31 13
14 16 14 26 1 8 -11 9 -20 1 -32z m1715 -135 c-20 -15 -46 4 -30 23 7 9 14 9
28 1 17 -11 17 -13 2 -24z m-1853 -90 c-8 -10 -14 -10 -23 -1 -18 16 3 40 22
25 9 -8 9 -14 1 -24z"/>
<path d="M2484 2502 c-114 -40 -183 -137 -184 -257 0 -59 33 -153 59 -169 17
-11 13 -48 -9 -84 -22 -36 -26 -67 -10 -77 6 -4 36 8 68 26 51 30 65 33 142
34 71 1 94 6 136 28 93 47 144 125 152 227 6 87 -22 154 -90 215 -79 71 -167
90 -264 57z m146 -22 c20 -5 45 -16 55 -24 17 -13 13 -13 -30 0 -94 29 -194 0
-254 -73 -39 -47 -65 -131 -58 -187 4 -28 3 -35 -3 -21 -5 11 -9 43 -9 71 -2
156 151 275 299 234z m-80 -160 c13 -7 27 -6 44 2 20 8 32 8 51 0 41 -19 33
-58 -22 -114 -26 -26 -52 -48 -59 -48 -23 0 -94 89 -94 118 0 47 36 66 80 42z
m160 -56 c0 -30 -103 -144 -131 -144 -11 0 4 20 47 62 50 48 64 68 64 90 0 17
4 27 10 23 6 -3 10 -17 10 -31z"/>
<path d="M1380 2235 c-175 -32 -349 -162 -423 -317 -19 -40 -37 -80 -40 -89
-3 -9 -17 -19 -32 -23 -41 -10 -74 -36 -92 -70 -19 -36 -20 -179 -2 -233 13
-41 60 -80 105 -89 28 -5 39 -14 49 -38 7 -17 29 -55 49 -83 20 -29 36 -54 36
-56 0 -3 -19 -7 -42 -10 -49 -7 -98 -52 -98 -91 0 -13 -7 -29 -16 -37 -30 -25
-44 -68 -44 -139 0 -65 -3 -77 -40 -137 -56 -93 -82 -167 -88 -245 -3 -56 -1
-74 17 -103 l20 -35 -104 0 c-94 0 -107 -2 -126 -21 -17 -17 -20 -29 -16 -60
l5 -39 -71 0 c-95 0 -118 -15 -36 -24 80 -8 2161 -8 2222 0 71 10 45 24 -43
24 l-78 0 5 39 c4 31 1 43 -16 60 -19 19 -32 21 -126 21 l-104 0 21 36 c33 56
22 157 -28 264 -21 45 -53 103 -71 129 -29 41 -33 53 -33 112 0 49 -5 72 -18
90 -11 13 -22 42 -25 63 -8 52 -43 86 -95 93 -23 3 -42 7 -42 9 0 2 20 33 45
69 24 36 50 84 57 106 10 34 19 44 53 59 23 10 53 32 68 50 25 30 27 38 27
132 0 83 -4 107 -21 137 -23 41 -50 61 -93 70 -23 5 -38 21 -70 76 -93 158
-249 269 -421 300 -97 17 -128 17 -225 0z m245 -30 c98 -25 195 -77 263 -140
34 -32 61 -60 59 -62 -3 -2 -33 12 -68 31 -222 120 -570 120 -777 -1 -24 -13
-46 -23 -48 -20 -3 2 21 28 53 57 62 57 163 110 253 134 73 19 192 20 265 1z
m86 -134 c106 -27 192 -73 261 -139 32 -30 58 -59 58 -63 0 -5 -21 12 -46 36
-52 51 -159 107 -254 132 -94 25 -388 25 -480 -1 -94 -26 -184 -73 -241 -126
-67 -63 -63 -44 5 23 84 82 197 135 341 158 81 13 271 3 356 -20z m-226 -111
c-3 -5 -12 -10 -19 -10 -33 0 -181 -86 -235 -136 -65 -60 -120 -154 -167 -288
-24 -70 -29 -76 -36 -55 -5 13 -12 61 -15 106 -7 101 14 193 57 245 49 59 194
124 315 141 61 8 106 7 100 -3z m643 -140 c39 -24 49 -47 52 -125 6 -115 2
-135 -29 -166 -51 -50 -56 -42 -53 79 3 73 -1 126 -11 164 -19 75 -14 81 41
48z m-1233 -167 c0 -71 4 -148 9 -172 8 -42 8 -43 -15 -36 -51 15 -70 47 -81
136 -12 98 -1 147 39 178 45 36 48 30 48 -106z m1060 74 c23 -32 19 -98 -8
-138 -67 -100 -170 15 -107 119 33 53 85 62 115 19z m-127 -249 c7 -7 12 -21
12 -33 0 -47 -65 -65 -76 -21 -12 48 32 86 64 54z m223 -308 c18 -24 17 -32
-11 -285 -42 -371 -47 -397 -71 -418 -28 -23 -46 -22 -25 2 11 12 21 48 27 98
5 43 20 164 33 268 35 275 37 299 20 324 -23 33 -40 25 -62 -28 -17 -41 -24
-49 -40 -44 -28 7 -85 -13 -107 -37 -10 -11 -28 -20 -40 -20 -22 0 -61 -34
-67 -59 -2 -8 7 -17 22 -21 15 -3 26 -14 28 -27 2 -14 12 -23 25 -25 14 -2 23
-11 25 -26 5 -33 -130 -161 -235 -225 -128 -77 -355 -147 -478 -147 -28 0 -50
-6 -61 -17 -15 -16 -17 -16 -29 0 -10 14 -35 198 -76 559 -13 107 -12 108 11
133 l24 25 534 -2 535 -3 18 -25z m-1162 -216 c-12 -13 -27 -24 -32 -24 -16 0
-2 97 19 127 l18 28 9 -53 c8 -49 7 -56 -14 -78z m1009 86 c27 -25 19 -44 -35
-89 -53 -43 -91 -39 -43 4 11 10 18 21 15 23 -3 3 -16 -5 -30 -18 -14 -13 -27
-21 -30 -19 -7 8 34 82 57 102 26 22 39 22 66 -3z m219 -44 c6 -47 -4 -59 -27
-31 -8 9 -9 28 -5 56 9 52 25 39 32 -25z m-1192 -138 c6 -63 4 -74 -11 -83
-80 -47 -160 -141 -152 -181 2 -12 14 -1 40 38 38 58 94 108 120 108 17 0 28
-57 28 -142 l0 -50 -36 22 c-38 24 -55 20 -37 -10 10 -15 9 -19 -4 -24 -15 -6
-15 -40 2 -78 6 -15 2 -18 -26 -18 -147 0 -164 154 -42 363 36 61 89 127 103
127 4 0 11 -33 15 -72z m1192 39 c69 -79 135 -212 148 -299 14 -94 -34 -158
-119 -158 -35 0 -38 2 -31 23 17 55 17 67 2 73 -13 5 -14 9 -4 24 18 30 1 34
-37 10 l-36 -22 0 44 c0 24 3 67 6 96 6 41 10 52 25 52 26 0 82 -52 121 -112
24 -38 34 -47 36 -34 8 40 -70 132 -152 181 -14 9 -16 20 -10 83 4 39 10 72
14 72 5 0 21 -15 37 -33z m-1147 -413 c13 -34 13 -34 -15 -34 -23 0 -65 34
-65 52 0 4 16 8 35 8 29 0 37 -5 45 -26z m1130 17 c0 -15 -51 -51 -71 -51 -22
0 -22 0 -9 34 8 21 16 26 45 26 19 0 35 -4 35 -9z m-485 -101 c-22 -5 -271
-10 -554 -11 -491 -2 -514 -3 -518 -20 -7 -24 -23 -25 -23 -1 0 42 0 42 580
41 314 -1 538 -5 515 -9z"/>
<path d="M1450 860 c-31 -31 -27 -93 6 -119 30 -24 52 -26 89 -9 32 14 33 38
0 38 -15 0 -31 10 -41 26 -16 24 -16 26 5 55 l22 29 -31 0 c-17 0 -39 -9 -50
-20z"/>
<path d="M1850 1021 c0 -24 25 -34 40 -16 15 18 5 35 -21 35 -12 0 -19 -7 -19
-19z m27 -8 c-4 -3 -7 0 -7 7 0 7 3 10 7 7 3 -4 3 -10 0 -14z"/>
</g>
</svg>
